<svg xmlns="http://www.w3.org/2000/svg" xmlns:xlink="http://www.w3.org/1999/xlink" width="24px" height="24px" viewBox="0 0 24 24" version="1.1"><title>Icons/Downloaden</title><g id="Icons/Downloaden" stroke="none" stroke-width="1" fill="none" fill-rule="evenodd"><g id="file-download" transform="translate(3.000000, 1.000000)" fill="#0B42FF" fill-rule="nonzero"><path d="M12,2.41421356 L12,6 L15.5857864,6 L12,2.41421356 Z M16,8 L12,8 C10.8954305,8 10,7.1045695 10,6 L10,2 L2,2 L2,20 L16,20 L16,8 Z M2,0 L12.4142136,0 L18,5.58578644 L18,20 C18,21.1045695 17.1045695,22 16,22 L2,22 C0.8954305,22 0,21.1045695 0,20 L0,2 C0,0.8954305 0.8954305,0 2,0 Z M8,13.5857864 L8,9 L10,9 L10,13.5857864 L11.2928932,12.2928932 L12.7071068,13.7071068 L9,17.4142136 L5.29289322,13.7071068 L6.70710678,12.2928932 L8,13.5857864 Z" id="Shape"/></g></g></svg>