<svg xmlns="http://www.w3.org/2000/svg" xmlns:xlink="http://www.w3.org/1999/xlink" width="24px" height="24px" viewBox="0 0 24 24" version="1.1"><title>Icons/Printen</title><g id="Icons/Printen" stroke="none" stroke-width="1" fill="none" fill-rule="evenodd"><g id="printer" transform="translate(2.000000, 2.000000)" fill="#0B42FF" fill-rule="nonzero"><path d="M4,17 L2,17 C0.8954305,17 0,16.1045695 0,15 L0,7 C0,5.8954305 0.8954305,5 2,5 L4,5 L4,0 L16,0 L16,5 L18,5 C19.1045695,5 20,5.8954305 20,7 L20,15 C20,16.1045695 19.1045695,17 18,17 L16,17 L16,20 L4,20 L4,17 Z M4,15 L4,13 L16,13 L16,15 L18,15 L18,7 L2,7 L2,15 L4,15 Z M6,5 L14,5 L14,2 L6,2 L6,5 Z M14,15 L6,15 L6,18 L14,18 L14,15 Z M16,8 C16.5522847,8 17,8.4477153 17,9 C17,9.5522847 16.5522847,10 16,10 C15.4477153,10 15,9.5522847 15,9 C15,8.4477153 15.4477153,8 16,8 Z" id="Shape"/></g></g></svg>